<mxfile host="app.diagrams.net" modified="2023-08-27T00:01:05.190Z" agent="Mozilla/5.0 (Windows NT 10.0; Win64; x64) AppleWebKit/537.36 (KHTML, like Gecko) Chrome/116.0.0.0 Safari/537.36" etag="nzyppunWjo8JrxSLV7Dx" version="21.6.9" type="device" pages="3">
  <diagram name="exerc2" id="2nwzPL86Kw4ywuA9oeBK">
    <mxGraphModel dx="1434" dy="750" grid="1" gridSize="10" guides="1" tooltips="1" connect="1" arrows="1" fold="1" page="1" pageScale="1" pageWidth="827" pageHeight="1169" math="0" shadow="0">
      <root>
        <mxCell id="0" />
        <mxCell id="1" parent="0" />
        <mxCell id="tmREag5LCHjiz-GlDQUb-3" value="" style="edgeStyle=orthogonalEdgeStyle;rounded=0;orthogonalLoop=1;jettySize=auto;html=1;" parent="1" source="tmREag5LCHjiz-GlDQUb-1" target="tmREag5LCHjiz-GlDQUb-2" edge="1">
          <mxGeometry relative="1" as="geometry" />
        </mxCell>
        <mxCell id="tmREag5LCHjiz-GlDQUb-1" value="" style="ellipse;whiteSpace=wrap;html=1;aspect=fixed;fillColor=#008a00;fontColor=#ffffff;strokeColor=#005700;" parent="1" vertex="1">
          <mxGeometry x="374" y="40" width="80" height="80" as="geometry" />
        </mxCell>
        <mxCell id="tmREag5LCHjiz-GlDQUb-5" value="" style="edgeStyle=orthogonalEdgeStyle;rounded=0;orthogonalLoop=1;jettySize=auto;html=1;" parent="1" source="tmREag5LCHjiz-GlDQUb-2" target="tmREag5LCHjiz-GlDQUb-4" edge="1">
          <mxGeometry relative="1" as="geometry" />
        </mxCell>
        <mxCell id="tmREag5LCHjiz-GlDQUb-2" value="&lt;i&gt;Ler&lt;/i&gt;&lt;b&gt; &lt;/b&gt;quantidade de latinhas por dia&lt;br&gt;&lt;br&gt;&lt;b&gt;qtdLatinhasDia&lt;/b&gt;" style="whiteSpace=wrap;html=1;" parent="1" vertex="1">
          <mxGeometry x="354" y="210" width="120" height="60" as="geometry" />
        </mxCell>
        <mxCell id="tmREag5LCHjiz-GlDQUb-7" value="" style="edgeStyle=orthogonalEdgeStyle;rounded=0;orthogonalLoop=1;jettySize=auto;html=1;" parent="1" source="tmREag5LCHjiz-GlDQUb-4" target="tmREag5LCHjiz-GlDQUb-6" edge="1">
          <mxGeometry relative="1" as="geometry" />
        </mxCell>
        <mxCell id="tmREag5LCHjiz-GlDQUb-4" value="&lt;i style=&quot;font-weight: normal;&quot;&gt;Exibir&amp;nbsp;&lt;br&gt;&lt;/i&gt;qtdLatinhasDia*365" style="whiteSpace=wrap;html=1;fontStyle=1" parent="1" vertex="1">
          <mxGeometry x="354" y="350" width="120" height="60" as="geometry" />
        </mxCell>
        <mxCell id="tmREag5LCHjiz-GlDQUb-9" value="" style="edgeStyle=orthogonalEdgeStyle;rounded=0;orthogonalLoop=1;jettySize=auto;html=1;" parent="1" source="tmREag5LCHjiz-GlDQUb-6" target="tmREag5LCHjiz-GlDQUb-8" edge="1">
          <mxGeometry relative="1" as="geometry" />
        </mxCell>
        <mxCell id="tmREag5LCHjiz-GlDQUb-10" value="&lt;i&gt;Caso&lt;/i&gt; &lt;b&gt;qtdLatinhasDia*365 &amp;gt;= 500&lt;/b&gt;" style="edgeLabel;html=1;align=center;verticalAlign=middle;resizable=0;points=[];" parent="tmREag5LCHjiz-GlDQUb-9" vertex="1" connectable="0">
          <mxGeometry x="-0.0667" relative="1" as="geometry">
            <mxPoint as="offset" />
          </mxGeometry>
        </mxCell>
        <mxCell id="tmREag5LCHjiz-GlDQUb-12" value="" style="edgeStyle=orthogonalEdgeStyle;rounded=0;orthogonalLoop=1;jettySize=auto;html=1;" parent="1" source="tmREag5LCHjiz-GlDQUb-6" target="tmREag5LCHjiz-GlDQUb-11" edge="1">
          <mxGeometry relative="1" as="geometry" />
        </mxCell>
        <mxCell id="tmREag5LCHjiz-GlDQUb-14" value="&lt;i&gt;Caso&lt;/i&gt; &lt;b&gt;qtdLatinhasDia*365 &amp;lt; 500&lt;/b&gt;" style="edgeLabel;html=1;align=center;verticalAlign=middle;resizable=0;points=[];" parent="tmREag5LCHjiz-GlDQUb-12" vertex="1" connectable="0">
          <mxGeometry y="-1" relative="1" as="geometry">
            <mxPoint as="offset" />
          </mxGeometry>
        </mxCell>
        <mxCell id="tmREag5LCHjiz-GlDQUb-6" value="" style="rhombus;whiteSpace=wrap;html=1;fontStyle=1;" parent="1" vertex="1">
          <mxGeometry x="374" y="480" width="80" height="80" as="geometry" />
        </mxCell>
        <mxCell id="tmREag5LCHjiz-GlDQUb-13" style="edgeStyle=orthogonalEdgeStyle;rounded=0;orthogonalLoop=1;jettySize=auto;html=1;exitX=0;exitY=0.5;exitDx=0;exitDy=0;entryX=0.5;entryY=1;entryDx=0;entryDy=0;" parent="1" source="tmREag5LCHjiz-GlDQUb-8" target="tmREag5LCHjiz-GlDQUb-11" edge="1">
          <mxGeometry relative="1" as="geometry" />
        </mxCell>
        <mxCell id="tmREag5LCHjiz-GlDQUb-8" value="Exibir&amp;nbsp;&lt;br&gt;&lt;span style=&quot;font-weight: normal;&quot;&gt;&quot;Cuidado com a diabetes!&quot;&lt;/span&gt;&lt;span style=&quot;background-color: rgb(255, 255, 255); color: rgb(3, 27, 78); font-family: &amp;quot;Exo 2&amp;quot;, Barlow; font-size: 14px; font-weight: 400; text-align: left; box-sizing: border-box;&quot; data-ccp-props=&quot;{&amp;quot;201341983&amp;quot;:0,&amp;quot;335559739&amp;quot;:120,&amp;quot;335559740&amp;quot;:276}&quot;&gt;&amp;nbsp;&lt;br&gt;&lt;/span&gt;&lt;div style=&quot;box-sizing: border-box; font-family: &amp;quot;Exo 2&amp;quot;, Barlow; color: rgb(3, 27, 78); font-size: 14px; font-weight: 400; text-align: left; background-color: rgb(255, 255, 255);&quot;&gt;&lt;/div&gt;" style="whiteSpace=wrap;html=1;fontStyle=1;" parent="1" vertex="1">
          <mxGeometry x="331" y="650" width="166" height="60" as="geometry" />
        </mxCell>
        <mxCell id="tmREag5LCHjiz-GlDQUb-11" value="" style="ellipse;whiteSpace=wrap;html=1;fontStyle=1;fillColor=#fa6800;fontColor=#000000;strokeColor=#C73500;" parent="1" vertex="1">
          <mxGeometry x="80" y="480" width="80" height="80" as="geometry" />
        </mxCell>
      </root>
    </mxGraphModel>
  </diagram>
  <diagram id="gZJPACyLCUC2BZz1w3Eh" name="exerc5">
    <mxGraphModel dx="1434" dy="750" grid="1" gridSize="10" guides="1" tooltips="1" connect="1" arrows="1" fold="1" page="1" pageScale="1" pageWidth="827" pageHeight="1169" math="0" shadow="0">
      <root>
        <mxCell id="0" />
        <mxCell id="1" parent="0" />
        <mxCell id="xxrY_-zLCwAu0TNHSXhz-5" value="" style="edgeStyle=orthogonalEdgeStyle;rounded=0;orthogonalLoop=1;jettySize=auto;html=1;" parent="1" source="xxrY_-zLCwAu0TNHSXhz-1" target="xxrY_-zLCwAu0TNHSXhz-4" edge="1">
          <mxGeometry relative="1" as="geometry" />
        </mxCell>
        <mxCell id="xxrY_-zLCwAu0TNHSXhz-1" value="" style="ellipse;whiteSpace=wrap;html=1;fillColor=#008a00;fontColor=#ffffff;strokeColor=#005700;" parent="1" vertex="1">
          <mxGeometry x="374" y="20" width="80" height="80" as="geometry" />
        </mxCell>
        <mxCell id="mtYc-W7gFzZrnk5Aym_g-12" value="" style="edgeStyle=orthogonalEdgeStyle;rounded=0;orthogonalLoop=1;jettySize=auto;html=1;" parent="1" source="xxrY_-zLCwAu0TNHSXhz-4" target="mtYc-W7gFzZrnk5Aym_g-11" edge="1">
          <mxGeometry relative="1" as="geometry" />
        </mxCell>
        <mxCell id="xxrY_-zLCwAu0TNHSXhz-4" value="&lt;i&gt;Ler&amp;nbsp;&lt;/i&gt;&amp;nbsp;quantidade de KWh consumida por mês&lt;br&gt;&lt;br&gt;&lt;b&gt;kwh&lt;/b&gt;" style="whiteSpace=wrap;html=1;" parent="1" vertex="1">
          <mxGeometry x="347" y="120" width="134" height="70" as="geometry" />
        </mxCell>
        <mxCell id="mtYc-W7gFzZrnk5Aym_g-6" style="edgeStyle=orthogonalEdgeStyle;rounded=0;orthogonalLoop=1;jettySize=auto;html=1;exitX=0;exitY=1;exitDx=0;exitDy=0;entryX=0.5;entryY=0;entryDx=0;entryDy=0;" parent="1" source="mtYc-W7gFzZrnk5Aym_g-1" target="mtYc-W7gFzZrnk5Aym_g-3" edge="1">
          <mxGeometry relative="1" as="geometry" />
        </mxCell>
        <mxCell id="mtYc-W7gFzZrnk5Aym_g-9" value="&lt;i&gt;Caso&lt;/i&gt; &lt;b&gt;kwh &amp;gt;= 100&lt;/b&gt;" style="edgeLabel;html=1;align=center;verticalAlign=middle;resizable=0;points=[];" parent="mtYc-W7gFzZrnk5Aym_g-6" vertex="1" connectable="0">
          <mxGeometry x="0.2105" relative="1" as="geometry">
            <mxPoint as="offset" />
          </mxGeometry>
        </mxCell>
        <mxCell id="mtYc-W7gFzZrnk5Aym_g-7" style="edgeStyle=orthogonalEdgeStyle;rounded=0;orthogonalLoop=1;jettySize=auto;html=1;exitX=1;exitY=1;exitDx=0;exitDy=0;entryX=0.5;entryY=0;entryDx=0;entryDy=0;" parent="1" source="mtYc-W7gFzZrnk5Aym_g-1" target="mtYc-W7gFzZrnk5Aym_g-5" edge="1">
          <mxGeometry relative="1" as="geometry" />
        </mxCell>
        <mxCell id="mtYc-W7gFzZrnk5Aym_g-8" value="&lt;i&gt;Caso &lt;/i&gt;&lt;b&gt;kwh &amp;lt; 100&lt;/b&gt;" style="edgeLabel;html=1;align=center;verticalAlign=middle;resizable=0;points=[];" parent="mtYc-W7gFzZrnk5Aym_g-7" vertex="1" connectable="0">
          <mxGeometry x="0.0737" relative="1" as="geometry">
            <mxPoint as="offset" />
          </mxGeometry>
        </mxCell>
        <mxCell id="mtYc-W7gFzZrnk5Aym_g-1" value="" style="rhombus;whiteSpace=wrap;html=1;" parent="1" vertex="1">
          <mxGeometry x="374" y="340" width="80" height="80" as="geometry" />
        </mxCell>
        <mxCell id="RUtNHwNEM6t-QFKhGtdA-3" style="edgeStyle=orthogonalEdgeStyle;rounded=0;orthogonalLoop=1;jettySize=auto;html=1;exitX=0.5;exitY=1;exitDx=0;exitDy=0;entryX=0;entryY=0.5;entryDx=0;entryDy=0;" edge="1" parent="1" source="mtYc-W7gFzZrnk5Aym_g-3" target="RUtNHwNEM6t-QFKhGtdA-1">
          <mxGeometry relative="1" as="geometry" />
        </mxCell>
        <mxCell id="mtYc-W7gFzZrnk5Aym_g-3" value="&lt;i&gt;Exibir&lt;/i&gt;&lt;br&gt;&quot;Valor da conta a ser pago é &lt;b&gt;conta&lt;/b&gt;&quot;" style="whiteSpace=wrap;html=1;" parent="1" vertex="1">
          <mxGeometry x="254" y="495" width="120" height="60" as="geometry" />
        </mxCell>
        <mxCell id="RUtNHwNEM6t-QFKhGtdA-2" style="edgeStyle=orthogonalEdgeStyle;rounded=0;orthogonalLoop=1;jettySize=auto;html=1;exitX=0.5;exitY=1;exitDx=0;exitDy=0;entryX=1;entryY=0.5;entryDx=0;entryDy=0;" edge="1" parent="1" source="mtYc-W7gFzZrnk5Aym_g-5" target="RUtNHwNEM6t-QFKhGtdA-1">
          <mxGeometry relative="1" as="geometry" />
        </mxCell>
        <mxCell id="mtYc-W7gFzZrnk5Aym_g-5" value="&lt;i style=&quot;border-color: var(--border-color);&quot;&gt;Exibir&lt;/i&gt;&lt;br style=&quot;border-color: var(--border-color);&quot;&gt;&quot;Valor da conta a ser pago é&amp;nbsp;&lt;span style=&quot;border-color: var(--border-color);&quot;&gt;&lt;b&gt;conta*0.90&lt;/b&gt;&lt;/span&gt;&quot;" style="whiteSpace=wrap;html=1;" parent="1" vertex="1">
          <mxGeometry x="454" y="495" width="120" height="60" as="geometry" />
        </mxCell>
        <mxCell id="mtYc-W7gFzZrnk5Aym_g-13" value="" style="edgeStyle=orthogonalEdgeStyle;rounded=0;orthogonalLoop=1;jettySize=auto;html=1;" parent="1" source="mtYc-W7gFzZrnk5Aym_g-11" target="mtYc-W7gFzZrnk5Aym_g-1" edge="1">
          <mxGeometry relative="1" as="geometry" />
        </mxCell>
        <mxCell id="mtYc-W7gFzZrnk5Aym_g-11" value="&lt;i&gt;Calcular&lt;/i&gt; o valor da conta&lt;br&gt;&lt;br&gt;&lt;b&gt;conta = kwh*0.85&lt;/b&gt;" style="whiteSpace=wrap;html=1;" parent="1" vertex="1">
          <mxGeometry x="354" y="230" width="120" height="60" as="geometry" />
        </mxCell>
        <mxCell id="RUtNHwNEM6t-QFKhGtdA-1" value="" style="ellipse;whiteSpace=wrap;html=1;fillColor=#fa6800;fontColor=#000000;strokeColor=#C73500;" vertex="1" parent="1">
          <mxGeometry x="374" y="620" width="80" height="80" as="geometry" />
        </mxCell>
      </root>
    </mxGraphModel>
  </diagram>
  <diagram id="cl-RY897KqSY4rsL9YNw" name="exerc6">
    <mxGraphModel dx="1434" dy="750" grid="1" gridSize="10" guides="1" tooltips="1" connect="1" arrows="1" fold="1" page="1" pageScale="1" pageWidth="827" pageHeight="1169" math="0" shadow="0">
      <root>
        <mxCell id="0" />
        <mxCell id="1" parent="0" />
        <mxCell id="LLAXlwvei5v-yGiX0WBn-3" value="" style="edgeStyle=orthogonalEdgeStyle;rounded=0;orthogonalLoop=1;jettySize=auto;html=1;" parent="1" source="LLAXlwvei5v-yGiX0WBn-1" target="LLAXlwvei5v-yGiX0WBn-2" edge="1">
          <mxGeometry relative="1" as="geometry" />
        </mxCell>
        <mxCell id="LLAXlwvei5v-yGiX0WBn-1" value="" style="ellipse;whiteSpace=wrap;html=1;fillColor=#008a00;fontColor=#ffffff;strokeColor=#005700;" parent="1" vertex="1">
          <mxGeometry x="374" y="10" width="80" height="80" as="geometry" />
        </mxCell>
        <mxCell id="LLAXlwvei5v-yGiX0WBn-5" value="" style="edgeStyle=orthogonalEdgeStyle;rounded=0;orthogonalLoop=1;jettySize=auto;html=1;" parent="1" source="LLAXlwvei5v-yGiX0WBn-2" target="LLAXlwvei5v-yGiX0WBn-4" edge="1">
          <mxGeometry relative="1" as="geometry" />
        </mxCell>
        <mxCell id="LLAXlwvei5v-yGiX0WBn-2" value="&lt;i&gt;Ler&lt;/i&gt; renda familiar&lt;br&gt;&lt;br&gt;&lt;b&gt;renda&lt;/b&gt;" style="whiteSpace=wrap;html=1;" parent="1" vertex="1">
          <mxGeometry x="354" y="110" width="120" height="60" as="geometry" />
        </mxCell>
        <mxCell id="LLAXlwvei5v-yGiX0WBn-7" value="" style="edgeStyle=orthogonalEdgeStyle;rounded=0;orthogonalLoop=1;jettySize=auto;html=1;" parent="1" source="LLAXlwvei5v-yGiX0WBn-4" target="LLAXlwvei5v-yGiX0WBn-6" edge="1">
          <mxGeometry relative="1" as="geometry" />
        </mxCell>
        <mxCell id="LLAXlwvei5v-yGiX0WBn-4" value="&lt;i&gt;Ler&lt;/i&gt; prestação&lt;br&gt;&lt;br&gt;&lt;b&gt;parcela&lt;br&gt;&lt;/b&gt;" style="whiteSpace=wrap;html=1;" parent="1" vertex="1">
          <mxGeometry x="354" y="190" width="120" height="60" as="geometry" />
        </mxCell>
        <mxCell id="LLAXlwvei5v-yGiX0WBn-9" value="" style="edgeStyle=orthogonalEdgeStyle;rounded=0;orthogonalLoop=1;jettySize=auto;html=1;" parent="1" source="LLAXlwvei5v-yGiX0WBn-6" target="LLAXlwvei5v-yGiX0WBn-8" edge="1">
          <mxGeometry relative="1" as="geometry" />
        </mxCell>
        <mxCell id="LLAXlwvei5v-yGiX0WBn-16" value="" style="edgeStyle=orthogonalEdgeStyle;rounded=0;orthogonalLoop=1;jettySize=auto;html=1;" parent="1" source="LLAXlwvei5v-yGiX0WBn-6" target="LLAXlwvei5v-yGiX0WBn-8" edge="1">
          <mxGeometry relative="1" as="geometry" />
        </mxCell>
        <mxCell id="LLAXlwvei5v-yGiX0WBn-6" value="&lt;i&gt;Exibir&amp;nbsp;&lt;br&gt;&lt;/i&gt;&quot;A prestação corresponde a &lt;b&gt;(parcela/renda*100)&lt;/b&gt;% da renda familiar&quot;" style="whiteSpace=wrap;html=1;" parent="1" vertex="1">
          <mxGeometry x="332" y="270" width="168" height="70" as="geometry" />
        </mxCell>
        <mxCell id="LLAXlwvei5v-yGiX0WBn-13" value="" style="edgeStyle=orthogonalEdgeStyle;rounded=0;orthogonalLoop=1;jettySize=auto;html=1;" parent="1" source="LLAXlwvei5v-yGiX0WBn-8" target="LLAXlwvei5v-yGiX0WBn-12" edge="1">
          <mxGeometry relative="1" as="geometry" />
        </mxCell>
        <mxCell id="LLAXlwvei5v-yGiX0WBn-21" value="&lt;i style=&quot;border-color: var(--border-color);&quot;&gt;Caso&lt;/i&gt;&amp;nbsp;&lt;b style=&quot;border-color: var(--border-color); font-size: 12px; background-color: rgb(251, 251, 251);&quot;&gt;parcela/renda*100 &amp;gt; 30&lt;/b&gt;" style="edgeLabel;html=1;align=center;verticalAlign=middle;resizable=0;points=[];" parent="LLAXlwvei5v-yGiX0WBn-13" vertex="1" connectable="0">
          <mxGeometry x="-0.2667" y="-2" relative="1" as="geometry">
            <mxPoint as="offset" />
          </mxGeometry>
        </mxCell>
        <mxCell id="LLAXlwvei5v-yGiX0WBn-18" style="edgeStyle=orthogonalEdgeStyle;rounded=0;orthogonalLoop=1;jettySize=auto;html=1;exitX=0;exitY=0.5;exitDx=0;exitDy=0;entryX=1;entryY=0.5;entryDx=0;entryDy=0;" parent="1" source="LLAXlwvei5v-yGiX0WBn-8" target="LLAXlwvei5v-yGiX0WBn-10" edge="1">
          <mxGeometry relative="1" as="geometry" />
        </mxCell>
        <mxCell id="LLAXlwvei5v-yGiX0WBn-22" value="&lt;i style=&quot;border-color: var(--border-color);&quot;&gt;Caso&lt;/i&gt;&amp;nbsp;&lt;b style=&quot;border-color: var(--border-color); font-size: 12px; background-color: rgb(251, 251, 251);&quot;&gt;parcela/renda*100 &amp;lt;= 30&lt;/b&gt;" style="edgeLabel;html=1;align=center;verticalAlign=middle;resizable=0;points=[];" parent="LLAXlwvei5v-yGiX0WBn-18" vertex="1" connectable="0">
          <mxGeometry x="0.0859" y="1" relative="1" as="geometry">
            <mxPoint as="offset" />
          </mxGeometry>
        </mxCell>
        <mxCell id="LLAXlwvei5v-yGiX0WBn-8" value="" style="rhombus;whiteSpace=wrap;html=1;" parent="1" vertex="1">
          <mxGeometry x="376" y="415" width="80" height="80" as="geometry" />
        </mxCell>
        <mxCell id="LLAXlwvei5v-yGiX0WBn-10" value="" style="ellipse;whiteSpace=wrap;html=1;fillColor=#fa6800;fontColor=#000000;strokeColor=#C73500;" parent="1" vertex="1">
          <mxGeometry x="40" y="415" width="80" height="80" as="geometry" />
        </mxCell>
        <mxCell id="LLAXlwvei5v-yGiX0WBn-14" value="" style="edgeStyle=orthogonalEdgeStyle;rounded=0;orthogonalLoop=1;jettySize=auto;html=1;" parent="1" source="LLAXlwvei5v-yGiX0WBn-12" target="LLAXlwvei5v-yGiX0WBn-10" edge="1">
          <mxGeometry relative="1" as="geometry" />
        </mxCell>
        <mxCell id="LLAXlwvei5v-yGiX0WBn-12" value="&lt;i&gt;Exibir&lt;br&gt;&lt;/i&gt;&quot;Será necessário complementar a renda familiar&quot;" style="whiteSpace=wrap;html=1;" parent="1" vertex="1">
          <mxGeometry x="356" y="585" width="120" height="60" as="geometry" />
        </mxCell>
      </root>
    </mxGraphModel>
  </diagram>
</mxfile>
